<svg xmlns="http://www.w3.org/2000/svg" xmlns:xlink="http://www.w3.org/1999/xlink" version="1.1" width="940" height="788" viewBox="0 0 940 788" xml:space="preserve">
<desc>Created with Fabric.js 3.5.0</desc>
<defs>
</defs>
<rect x="0" y="0" width="100%" height="100%" fill="#ffffff"></rect>
<g transform="matrix(1.1199 0 0 1.1199 569.6825 217.0148)" id="538322"  >
<rect style="stroke: rgb(0,0,0); stroke-width: 1; stroke-dasharray: none; stroke-linecap: butt; stroke-dashoffset: 0; stroke-linejoin: miter; stroke-miterlimit: 4; is-custom-font: none; font-file-url: none; fill: rgb(255,255,255); fill-rule: nonzero; opacity: 1;"  x="-60" y="-30" rx="0" ry="0" width="120" height="60" />
</g>
<g transform="matrix(1.1199 0 0 1.1199 569.1219 216.7236)" style="" id="155306"  >
		<text xml:space="preserve" font-family="Helvetica" font-size="12" font-style="normal" font-weight="normal" style="stroke: none; stroke-width: 1; stroke-dasharray: none; stroke-linecap: butt; stroke-dashoffset: 0; stroke-linejoin: miter; stroke-miterlimit: 4; is-custom-font: none; font-file-url: none; fill: rgb(0,0,0); fill-rule: nonzero; opacity: 1; white-space: pre;" ><tspan x="-42.0293" y="3.7697" >&lt;&lt;interface&gt;&gt;...</tspan></text>
</g>
<g transform="matrix(1.1199 0 0 1.1199 289.0254 341.3188)" id="230694"  >
<rect style="stroke: rgb(0,0,0); stroke-width: 1; stroke-dasharray: none; stroke-linecap: butt; stroke-dashoffset: 0; stroke-linejoin: miter; stroke-miterlimit: 4; is-custom-font: none; font-file-url: none; fill: rgb(255,255,255); fill-rule: nonzero; opacity: 1;"  x="-60" y="-15" rx="0" ry="0" width="120" height="30" />
</g>
<g transform="matrix(1.1199 0 0 1.1199 288.4647 341.0281)" style="" id="838449"  >
		<text xml:space="preserve" font-family="Helvetica" font-size="12" font-style="normal" font-weight="normal" style="stroke: none; stroke-width: 1; stroke-dasharray: none; stroke-linecap: butt; stroke-dashoffset: 0; stroke-linejoin: miter; stroke-miterlimit: 4; is-custom-font: none; font-file-url: none; fill: rgb(0,0,0); fill-rule: nonzero; opacity: 1; white-space: pre;" ><tspan x="-43.3564" y="3.7697" >BaseExpression</tspan></text>
</g>
<g transform="matrix(1.1199 0 0 1.1199 123.1556 424.1886)" id="780813"  >
<rect style="stroke: rgb(0,0,0); stroke-width: 1; stroke-dasharray: none; stroke-linecap: butt; stroke-dashoffset: 0; stroke-linejoin: miter; stroke-miterlimit: 4; is-custom-font: none; font-file-url: none; fill: rgb(255,255,255); fill-rule: nonzero; opacity: 1;"  x="-60" y="-15" rx="0" ry="0" width="120" height="30" />
</g>
<g transform="matrix(1.1199 0 0 1.1199 122.5951 423.8978)" style="" id="487388"  >
		<text xml:space="preserve" font-family="Helvetica" font-size="12" font-style="normal" font-weight="normal" style="stroke: none; stroke-width: 1; stroke-dasharray: none; stroke-linecap: butt; stroke-dashoffset: 0; stroke-linejoin: miter; stroke-miterlimit: 4; is-custom-font: none; font-file-url: none; fill: rgb(0,0,0); fill-rule: nonzero; opacity: 1; white-space: pre;" ><tspan x="-45.6855" y="3.7697" >UnaryExpression</tspan></text>
</g>
<g transform="matrix(1.1199 0 0 1.1199 468.8949 424.1886)" id="894532"  >
<rect style="stroke: rgb(0,0,0); stroke-width: 1; stroke-dasharray: none; stroke-linecap: butt; stroke-dashoffset: 0; stroke-linejoin: miter; stroke-miterlimit: 4; is-custom-font: none; font-file-url: none; fill: rgb(255,255,255); fill-rule: nonzero; opacity: 1;"  x="-60" y="-15" rx="0" ry="0" width="120" height="30" />
</g>
<g transform="matrix(1.1199 0 0 1.1199 468.3346 423.8978)" style="" id="393427"  >
		<text xml:space="preserve" font-family="Helvetica" font-size="12" font-style="normal" font-weight="normal" style="stroke: none; stroke-width: 1; stroke-dasharray: none; stroke-linecap: butt; stroke-dashoffset: 0; stroke-linejoin: miter; stroke-miterlimit: 4; is-custom-font: none; font-file-url: none; fill: rgb(0,0,0); fill-rule: nonzero; opacity: 1; white-space: pre;" ><tspan x="-46.6875" y="3.7697" >BinaryExpression</tspan></text>
</g>
<g transform="matrix(1.1199 0 0 1.1199 833.9175 552.9724)" id="174993"  >
<rect style="stroke: rgb(0,0,0); stroke-width: 1; stroke-dasharray: none; stroke-linecap: butt; stroke-dashoffset: 0; stroke-linejoin: miter; stroke-miterlimit: 4; is-custom-font: none; font-file-url: none; fill: rgb(255,255,255); fill-rule: nonzero; opacity: 1;"  x="-22.5" y="-15" rx="0" ry="0" width="45" height="30" />
</g>
<g transform="matrix(1.1199 0 0 1.1199 833.917 552.6818)" style="" id="881987"  >
		<text xml:space="preserve" font-family="Helvetica" font-size="12" font-style="normal" font-weight="normal" style="stroke: none; stroke-width: 1; stroke-dasharray: none; stroke-linecap: butt; stroke-dashoffset: 0; stroke-linejoin: miter; stroke-miterlimit: 4; is-custom-font: none; font-file-url: none; fill: rgb(0,0,0); fill-rule: nonzero; opacity: 1; white-space: pre;" ><tspan x="-8.8916" y="3.7697" >Var</tspan></text>
</g>
<g transform="matrix(1.1199 0 0 1.1199 902.229 552.9724)" id="797452"  >
<rect style="stroke: rgb(0,0,0); stroke-width: 1; stroke-dasharray: none; stroke-linecap: butt; stroke-dashoffset: 0; stroke-linejoin: miter; stroke-miterlimit: 4; is-custom-font: none; font-file-url: none; fill: rgb(255,255,255); fill-rule: nonzero; opacity: 1;"  x="-22.5" y="-15" rx="0" ry="0" width="45" height="30" />
</g>
<g transform="matrix(1.1199 0 0 1.1199 902.2285 552.6818)" style="" id="231419"  >
		<text xml:space="preserve" font-family="Helvetica" font-size="12" font-style="normal" font-weight="normal" style="stroke: none; stroke-width: 1; stroke-dasharray: none; stroke-linecap: butt; stroke-dashoffset: 0; stroke-linejoin: miter; stroke-miterlimit: 4; is-custom-font: none; font-file-url: none; fill: rgb(0,0,0); fill-rule: nonzero; opacity: 1; white-space: pre;" ><tspan x="-8.2266" y="3.7697" >Val</tspan></text>
</g>
<g transform="matrix(1.1199 0 0 1.1199 286.9162 552.9724)" id="602873"  >
<rect style="stroke: rgb(0,0,0); stroke-width: 1; stroke-dasharray: none; stroke-linecap: butt; stroke-dashoffset: 0; stroke-linejoin: miter; stroke-miterlimit: 4; is-custom-font: none; font-file-url: none; fill: rgb(255,255,255); fill-rule: nonzero; opacity: 1;"  x="-22.5" y="-15" rx="0" ry="0" width="45" height="30" />
</g>
<g transform="matrix(1.1199 0 0 1.1199 286.9157 552.6818)" style="" id="79938"  >
		<text xml:space="preserve" font-family="Helvetica" font-size="12" font-style="normal" font-weight="normal" style="stroke: none; stroke-width: 1; stroke-dasharray: none; stroke-linecap: butt; stroke-dashoffset: 0; stroke-linejoin: miter; stroke-miterlimit: 4; is-custom-font: none; font-file-url: none; fill: rgb(0,0,0); fill-rule: nonzero; opacity: 1; white-space: pre;" ><tspan x="-10.6758" y="3.7697" >And</tspan></text>
</g>
<g transform="matrix(1.1199 0 0 1.1199 359.7071 552.9724)" id="966323"  >
<rect style="stroke: rgb(0,0,0); stroke-width: 1; stroke-dasharray: none; stroke-linecap: butt; stroke-dashoffset: 0; stroke-linejoin: miter; stroke-miterlimit: 4; is-custom-font: none; font-file-url: none; fill: rgb(255,255,255); fill-rule: nonzero; opacity: 1;"  x="-22.5" y="-15" rx="0" ry="0" width="45" height="30" />
</g>
<g transform="matrix(1.1199 0 0 1.1199 359.7065 552.6818)" style="" id="871093"  >
		<text xml:space="preserve" font-family="Helvetica" font-size="12" font-style="normal" font-weight="normal" style="stroke: none; stroke-width: 1; stroke-dasharray: none; stroke-linecap: butt; stroke-dashoffset: 0; stroke-linejoin: miter; stroke-miterlimit: 4; is-custom-font: none; font-file-url: none; fill: rgb(0,0,0); fill-rule: nonzero; opacity: 1; white-space: pre;" ><tspan x="-6.665" y="3.7697" >Or</tspan></text>
</g>
<g transform="matrix(1.1199 0 0 1.1199 432.4981 552.9724)" id="790540"  >
<rect style="stroke: rgb(0,0,0); stroke-width: 1; stroke-dasharray: none; stroke-linecap: butt; stroke-dashoffset: 0; stroke-linejoin: miter; stroke-miterlimit: 4; is-custom-font: none; font-file-url: none; fill: rgb(255,255,255); fill-rule: nonzero; opacity: 1;"  x="-22.5" y="-15" rx="0" ry="0" width="45" height="30" />
</g>
<g transform="matrix(1.1199 0 0 1.1199 432.4976 552.6818)" style="" id="886660"  >
		<text xml:space="preserve" font-family="Helvetica" font-size="12" font-style="normal" font-weight="normal" style="stroke: none; stroke-width: 1; stroke-dasharray: none; stroke-linecap: butt; stroke-dashoffset: 0; stroke-linejoin: miter; stroke-miterlimit: 4; is-custom-font: none; font-file-url: none; fill: rgb(0,0,0); fill-rule: nonzero; opacity: 1; white-space: pre;" ><tspan x="-9.3369" y="3.7697" >Xor</tspan></text>
</g>
<g transform="matrix(1.1199 0 0 1.1199 505.289 552.9724)" id="294895"  >
<rect style="stroke: rgb(0,0,0); stroke-width: 1; stroke-dasharray: none; stroke-linecap: butt; stroke-dashoffset: 0; stroke-linejoin: miter; stroke-miterlimit: 4; is-custom-font: none; font-file-url: none; fill: rgb(255,255,255); fill-rule: nonzero; opacity: 1;"  x="-22.5" y="-15" rx="0" ry="0" width="45" height="30" />
</g>
<g transform="matrix(1.1199 0 0 1.1199 505.2887 552.6818)" style="" id="860649"  >
		<text xml:space="preserve" font-family="Helvetica" font-size="12" font-style="normal" font-weight="normal" style="stroke: none; stroke-width: 1; stroke-dasharray: none; stroke-linecap: butt; stroke-dashoffset: 0; stroke-linejoin: miter; stroke-miterlimit: 4; is-custom-font: none; font-file-url: none; fill: rgb(0,0,0); fill-rule: nonzero; opacity: 1; white-space: pre;" ><tspan x="-14.3438" y="3.7697" >Nand</tspan></text>
</g>
<g transform="matrix(1.1199 0 0 1.1199 578.08 552.9724)" id="168842"  >
<rect style="stroke: rgb(0,0,0); stroke-width: 1; stroke-dasharray: none; stroke-linecap: butt; stroke-dashoffset: 0; stroke-linejoin: miter; stroke-miterlimit: 4; is-custom-font: none; font-file-url: none; fill: rgb(255,255,255); fill-rule: nonzero; opacity: 1;"  x="-22.5" y="-15" rx="0" ry="0" width="45" height="30" />
</g>
<g transform="matrix(1.1199 0 0 1.1199 578.0794 552.6818)" style="" id="875770"  >
		<text xml:space="preserve" font-family="Helvetica" font-size="12" font-style="normal" font-weight="normal" style="stroke: none; stroke-width: 1; stroke-dasharray: none; stroke-linecap: butt; stroke-dashoffset: 0; stroke-linejoin: miter; stroke-miterlimit: 4; is-custom-font: none; font-file-url: none; fill: rgb(0,0,0); fill-rule: nonzero; opacity: 1; white-space: pre;" ><tspan x="-9.668" y="3.7697" >Nor</tspan></text>
</g>
<g transform="matrix(1.1199 0 0 1.1199 650.8709 552.9724)" id="31146"  >
<rect style="stroke: rgb(0,0,0); stroke-width: 1; stroke-dasharray: none; stroke-linecap: butt; stroke-dashoffset: 0; stroke-linejoin: miter; stroke-miterlimit: 4; is-custom-font: none; font-file-url: none; fill: rgb(255,255,255); fill-rule: nonzero; opacity: 1;"  x="-22.5" y="-15" rx="0" ry="0" width="45" height="30" />
</g>
<g transform="matrix(1.1199 0 0 1.1199 650.8705 552.6818)" style="" id="658980"  >
		<text xml:space="preserve" font-family="Helvetica" font-size="12" font-style="normal" font-weight="normal" style="stroke: none; stroke-width: 1; stroke-dasharray: none; stroke-linecap: butt; stroke-dashoffset: 0; stroke-linejoin: miter; stroke-miterlimit: 4; is-custom-font: none; font-file-url: none; fill: rgb(0,0,0); fill-rule: nonzero; opacity: 1; white-space: pre;" ><tspan x="-12.6738" y="3.7697" >Xnor</tspan></text>
</g>
<g transform="matrix(1.1199 0 0 1.1199 189.9301 552.9724)" id="263781"  >
<rect style="stroke: rgb(0,0,0); stroke-width: 1; stroke-dasharray: none; stroke-linecap: butt; stroke-dashoffset: 0; stroke-linejoin: miter; stroke-miterlimit: 4; is-custom-font: none; font-file-url: none; fill: rgb(255,255,255); fill-rule: nonzero; opacity: 1;"  x="-22.5" y="-15" rx="0" ry="0" width="45" height="30" />
</g>
<g transform="matrix(1.1199 0 0 1.1199 189.9296 552.6818)" style="" id="829046"  >
		<text xml:space="preserve" font-family="Helvetica" font-size="12" font-style="normal" font-weight="normal" style="stroke: none; stroke-width: 1; stroke-dasharray: none; stroke-linecap: butt; stroke-dashoffset: 0; stroke-linejoin: miter; stroke-miterlimit: 4; is-custom-font: none; font-file-url: none; fill: rgb(0,0,0); fill-rule: nonzero; opacity: 1; white-space: pre;" ><tspan x="-9.3369" y="3.7697" >Not</tspan></text>
</g>
<g transform="matrix(1.8518 0 0 1.1199 412.4595 295.4722)" id="20775"  >
<path style="stroke: rgb(0,0,0); stroke-width: 1; stroke-dasharray: 3 3; stroke-linecap: butt; stroke-dashoffset: 0; stroke-linejoin: miter; stroke-miterlimit: 10; is-custom-font: none; font-file-url: none; fill: none; fill-rule: nonzero; opacity: 1;"  transform=" translate(-310, -126.06)" d="M 243 152 L 243 128 Q 243 118 253 118 L 367 118 Q 377 118 377 109.06 L 377 100.12" stroke-linecap="round" />
</g>
<g transform="matrix(1.1199 0 0 1.1199 536.0845 259.1431)" id="871864"  >
<path style="stroke: rgb(0,0,0); stroke-width: 1; stroke-dasharray: none; stroke-linecap: butt; stroke-dashoffset: 0; stroke-linejoin: miter; stroke-miterlimit: 10; is-custom-font: none; font-file-url: none; fill: none; fill-rule: nonzero; opacity: 1;"  transform=" translate(-377, -93.62)" d="M 377 87.12 L 383.5 100.12 L 370.5 100.12 Z" stroke-linecap="round" />
</g>
<g transform="matrix(0.422 0 0 1 118.7663 499.569)" id="544660"  >
<rect style="stroke: rgb(0,0,0); stroke-width: 2; stroke-dasharray: none; stroke-linecap: butt; stroke-dashoffset: 0; stroke-linejoin: miter; stroke-miterlimit: 4; is-custom-font: none; font-file-url: none; fill: rgb(255,255,255); fill-rule: nonzero; opacity: 1;"  x="-162.5" y="-0.5" rx="0" ry="0" width="325" height="1" />
</g>
<g transform="matrix(1.1199 0 0 1.1199 650.87 518.3968)" id="712852"  >
<path style="stroke: rgb(0,0,0); stroke-width: 2; stroke-dasharray: none; stroke-linecap: butt; stroke-dashoffset: 0; stroke-linejoin: miter; stroke-miterlimit: 10; is-custom-font: none; font-file-url: none; fill: none; fill-rule: nonzero; opacity: 1;"  transform=" translate(-479.5, -325.125)" d="M 479.5 341 L 479.5 309.25" stroke-linecap="round" />
</g>
<g transform="matrix(1.1199 0 0 1.1199 578.6223 518.8167)" id="712466"  >
<path style="stroke: rgb(0,0,0); stroke-width: 2; stroke-dasharray: none; stroke-linecap: butt; stroke-dashoffset: 0; stroke-linejoin: miter; stroke-miterlimit: 10; is-custom-font: none; font-file-url: none; fill: none; fill-rule: nonzero; opacity: 1;"  transform=" translate(-414.985, -325.5)" d="M 414.5 341 L 415.47 310" stroke-linecap="round" />
</g>
<g transform="matrix(1.1199 0 0 1.1199 505.1034 518.8504)" id="414701"  >
<path style="stroke: rgb(0,0,0); stroke-width: 2; stroke-dasharray: none; stroke-linecap: butt; stroke-dashoffset: 0; stroke-linejoin: miter; stroke-miterlimit: 10; is-custom-font: none; font-file-url: none; fill: none; fill-rule: nonzero; opacity: 1;"  transform=" translate(-349.335, -325.53)" d="M 349.5 341 L 349.17 310.06" stroke-linecap="round" />
</g>
<g transform="matrix(1.1199 0 0 1.1199 286.9153 518.8167)" id="436974"  >
<path style="stroke: rgb(0,0,0); stroke-width: 2; stroke-dasharray: none; stroke-linecap: butt; stroke-dashoffset: 0; stroke-linejoin: miter; stroke-miterlimit: 10; is-custom-font: none; font-file-url: none; fill: none; fill-rule: nonzero; opacity: 1;"  transform=" translate(-154.5, -325.5)" d="M 154.5 341 L 154.5 310" stroke-linecap="round" />
</g>
<g transform="matrix(1.1199 0 0 1.1199 432.4972 518.912)" id="216263"  >
<path style="stroke: rgb(0,0,0); stroke-width: 2; stroke-dasharray: none; stroke-linecap: butt; stroke-dashoffset: 0; stroke-linejoin: miter; stroke-miterlimit: 10; is-custom-font: none; font-file-url: none; fill: none; fill-rule: nonzero; opacity: 1;"  transform=" translate(-284.5, -325.585)" d="M 284.5 341 L 284.5 310.17" stroke-linecap="round" />
</g>
<g transform="matrix(1.1199 0 0 1.1199 359.7062 518.912)" id="435531"  >
<path style="stroke: rgb(0,0,0); stroke-width: 2; stroke-dasharray: none; stroke-linecap: butt; stroke-dashoffset: 0; stroke-linejoin: miter; stroke-miterlimit: 10; is-custom-font: none; font-file-url: none; fill: none; fill-rule: nonzero; opacity: 1;"  transform=" translate(-219.5, -325.585)" d="M 219.5 341 L 219.5 310.17" stroke-linecap="round" />
</g>
<g transform="matrix(1.1199 0 0 1.1199 468.8927 475.2769)" id="721777"  >
<path style="stroke: rgb(0,0,0); stroke-width: 2; stroke-dasharray: none; stroke-linecap: butt; stroke-dashoffset: 0; stroke-linejoin: miter; stroke-miterlimit: 10; is-custom-font: none; font-file-url: none; fill: none; fill-rule: nonzero; opacity: 1;"  transform=" translate(-317, -286.62)" d="M 317 309 L 317 264.24" stroke-linecap="round" />
</g>
<g transform="matrix(1.1199 0 0 1.1199 468.8928 447.9739)" id="730882"  >
<path style="stroke: rgb(0,0,0); stroke-width: 2; stroke-dasharray: none; stroke-linecap: butt; stroke-dashoffset: 0; stroke-linejoin: miter; stroke-miterlimit: 10; is-custom-font: none; font-file-url: none; fill: rgb(0,0,0); fill-rule: nonzero; opacity: 1;"  transform=" translate(-317, -262.24)" d="M 317 258.24 L 321 266.24 L 317 264.24 L 313 266.24 Z" stroke-linecap="round" />
</g>
<g transform="matrix(1.1199 0 0 1.1199 123.1534 447.9739)" id="467058"  >
<path style="stroke: rgb(0,0,0); stroke-width: 2; stroke-dasharray: none; stroke-linecap: butt; stroke-dashoffset: 0; stroke-linejoin: miter; stroke-miterlimit: 10; is-custom-font: none; font-file-url: none; fill: rgb(0,0,0); fill-rule: nonzero; opacity: 1;"  transform=" translate(-169, -262.24)" d="M 169 258.24 L 173 266.24 L 169 264.24 L 165 266.24 Z" stroke-linecap="round" />
</g>
<g transform="matrix(2.3367 0 0 2.3367 295.3996 379.2723)" id="952288"  >
<rect style="stroke: rgb(0,0,0); stroke-width: 0.5; stroke-dasharray: none; stroke-linecap: butt; stroke-dashoffset: 0; stroke-linejoin: miter; stroke-miterlimit: 4; is-custom-font: none; font-file-url: none; fill: rgb(255,255,255); fill-rule: nonzero; opacity: 1;"  x="-73.5" y="-0.5" rx="0" ry="0" width="147" height="1" />
</g>
<g transform="matrix(1.1199 0 0 1.1199 468.6127 394.2321)" id="390208"  >
<path style="stroke: rgb(0,0,0); stroke-width: 2; stroke-dasharray: none; stroke-linecap: butt; stroke-dashoffset: 0; stroke-linejoin: miter; stroke-miterlimit: 10; is-custom-font: none; font-file-url: none; fill: none; fill-rule: nonzero; opacity: 1;"  transform=" translate(-316.75, -214.25)" d="M 317 226 L 316.5 202.5" stroke-linecap="round" />
</g>
<g transform="matrix(1.1199 0 0 1.1199 123.4333 394.512)" id="203201"  >
<path style="stroke: rgb(0,0,0); stroke-width: 2; stroke-dasharray: none; stroke-linecap: butt; stroke-dashoffset: 0; stroke-linejoin: miter; stroke-miterlimit: 10; is-custom-font: none; font-file-url: none; fill: none; fill-rule: nonzero; opacity: 1;"  transform=" translate(-169.25, -214.5)" d="M 169 226 L 169.5 203" stroke-linecap="round" />
</g>
<g transform="matrix(1.1199 0 0 1.1199 288.939 373.9288)" id="771619"  >
<path style="stroke: rgb(0,0,0); stroke-width: 2; stroke-dasharray: none; stroke-linecap: butt; stroke-dashoffset: 0; stroke-linejoin: miter; stroke-miterlimit: 10; is-custom-font: none; font-file-url: none; fill: none; fill-rule: nonzero; opacity: 1;"  transform=" translate(-242.925, -196.12)" d="M 243 202 L 242.85 190.24" stroke-linecap="round" />
</g>
<g transform="matrix(1.1199 0 0 1.1199 288.8775 365.1322)" id="900038"  >
<path style="stroke: rgb(0,0,0); stroke-width: 2; stroke-dasharray: none; stroke-linecap: butt; stroke-dashoffset: 0; stroke-linejoin: miter; stroke-miterlimit: 10; is-custom-font: none; font-file-url: none; fill: rgb(0,0,0); fill-rule: nonzero; opacity: 1;"  transform=" translate(-242.87, -188.265)" d="M 242.77 184.24 L 246.87 192.18 L 242.85 190.24 L 238.87 192.29 Z" stroke-linecap="round" />
</g>
<g transform="matrix(1.1066 0 0 1.1199 751.6553 276.4339)" id="274347"  >
<path style="stroke: rgb(0,0,0); stroke-width: 1; stroke-dasharray: 3 3; stroke-linecap: butt; stroke-dashoffset: 0; stroke-linejoin: miter; stroke-miterlimit: 10; is-custom-font: none; font-file-url: none; fill: none; fill-rule: nonzero; opacity: 1;"  transform=" translate(-571.5, -109.06)" d="M 706 118 L 447 118 Q 437 118 437 109.06 L 437 100.12" stroke-linecap="round" />
</g>
<g transform="matrix(1.1199 0 0 1.1199 603.2762 259.1431)" id="317321"  >
<path style="stroke: rgb(0,0,0); stroke-width: 1; stroke-dasharray: none; stroke-linecap: butt; stroke-dashoffset: 0; stroke-linejoin: miter; stroke-miterlimit: 10; is-custom-font: none; font-file-url: none; fill: none; fill-rule: nonzero; opacity: 1;"  transform=" translate(-437, -93.62)" d="M 437 87.12 L 443.5 100.12 L 430.5 100.12 Z" stroke-linecap="round" />
</g>
<g transform="matrix(1.1199 0 0 1.1199 902.5081 410.7539)" id="186613"  >
<path style="stroke: rgb(0,0,0); stroke-width: 1; stroke-dasharray: 3 3; stroke-linecap: butt; stroke-dashoffset: 0; stroke-linejoin: miter; stroke-miterlimit: 10; is-custom-font: none; font-file-url: none; fill: none; fill-rule: nonzero; opacity: 1;"  transform=" translate(-706.75, -229)" d="M 706.5 341 L 707 117" stroke-linecap="round" />
</g>
<g transform="matrix(1.1199 0 0 1.1199 834.1966 410.7539)" id="529253"  >
<path style="stroke: rgb(0,0,0); stroke-width: 1; stroke-dasharray: 3 3; stroke-linecap: butt; stroke-dashoffset: 0; stroke-linejoin: miter; stroke-miterlimit: 10; is-custom-font: none; font-file-url: none; fill: none; fill-rule: nonzero; opacity: 1;"  transform=" translate(-645.75, -229)" d="M 645.5 341 L 646 117" stroke-linecap="round" />
</g>
<g transform="matrix(1.1199 0 0 1.1199 128.7126 373.9363)" id="267662"  >
<rect style="stroke: rgb(0,0,0); stroke-opacity: 0; stroke-width: 1; stroke-dasharray: none; stroke-linecap: butt; stroke-dashoffset: 0; stroke-linejoin: miter; stroke-miterlimit: 4; is-custom-font: none; font-file-url: none; fill: rgb(255,255,255); fill-opacity: 0; fill-rule: nonzero; opacity: 1;"  x="-408.5" y="-198" rx="0" ry="0" width="817" height="396" />
</g>
<g transform="matrix(1.1199 0 0 1.1199 50.1317 551.8659)" id="298966"  >
<rect style="stroke: rgb(0,0,0); stroke-width: 1; stroke-dasharray: none; stroke-linecap: butt; stroke-dashoffset: 0; stroke-linejoin: miter; stroke-miterlimit: 4; is-custom-font: none; font-file-url: none; fill: rgb(255,255,255); fill-rule: nonzero; opacity: 1;"  x="-22.5" y="-15" rx="0" ry="0" width="45" height="30" />
</g>
<g transform="matrix(1.1199 0 0 1.1199 120.7417 551.8659)" id="796453"  >
<rect style="stroke: rgb(0,0,0); stroke-width: 1; stroke-dasharray: none; stroke-linecap: butt; stroke-dashoffset: 0; stroke-linejoin: miter; stroke-miterlimit: 4; is-custom-font: none; font-file-url: none; fill: rgb(255,255,255); fill-rule: nonzero; opacity: 1;"  x="-22.5" y="-15" rx="0" ry="0" width="45" height="30" />
</g>
<g transform="matrix(1.1199 0 0 1.1199 50.2381 518.2915)" id="511020"  >
<path style="stroke: rgb(0,0,0); stroke-width: 2; stroke-dasharray: none; stroke-linecap: butt; stroke-dashoffset: 0; stroke-linejoin: miter; stroke-miterlimit: 10; is-custom-font: none; font-file-url: none; fill: none; fill-rule: nonzero; opacity: 1;"  transform=" translate(-479.5, -325.125)" d="M 479.5 341 L 479.5 309.25" stroke-linecap="round" />
</g>
<g transform="matrix(1.1199 0 0 1.1199 122.2381 516.2915)" id="744707"  >
<path style="stroke: rgb(0,0,0); stroke-width: 2; stroke-dasharray: none; stroke-linecap: butt; stroke-dashoffset: 0; stroke-linejoin: miter; stroke-miterlimit: 10; is-custom-font: none; font-file-url: none; fill: none; fill-rule: nonzero; opacity: 1;"  transform=" translate(-479.5, -325.125)" d="M 479.5 341 L 479.5 309.25" stroke-linecap="round" />
</g>
<g transform="matrix(1 0 0 1 49.2417 551.0853)" style="" id="746970"  >
		<text xml:space="preserve" font-family="Lato" font-size="13" font-style="normal" font-weight="normal" style="stroke: none; stroke-width: 1; stroke-dasharray: none; stroke-linecap: butt; stroke-dashoffset: 0; stroke-linejoin: miter; stroke-miterlimit: 4; is-custom-font: none; font-file-url: none; fill: rgb(0,0,0); fill-rule: nonzero; opacity: 1; white-space: pre;" ><tspan x="-10.309" y="4.0838" >Pos</tspan></text>
</g>
<g transform="matrix(1 0 0 1 120.2215 551.8665)" style="" id="747202"  >
		<text xml:space="preserve" font-family="Lato" font-size="13" font-style="normal" font-weight="normal" style="stroke: none; stroke-width: 1; stroke-dasharray: none; stroke-linecap: butt; stroke-dashoffset: 0; stroke-linejoin: miter; stroke-miterlimit: 4; is-custom-font: none; font-file-url: none; fill: rgb(0,0,0); fill-rule: nonzero; opacity: 1; white-space: pre;" ><tspan x="-11.6415" y="4.0838" >Neg</tspan></text>
</g>
<g transform="matrix(1.1252 0 0 1.1252 468.6833 501.4895)" id="730608"  >
<rect style="stroke: rgb(0,0,0); stroke-width: 1; stroke-dasharray: none; stroke-linecap: butt; stroke-dashoffset: 0; stroke-linejoin: miter; stroke-miterlimit: 4; is-custom-font: none; font-file-url: none; fill: rgb(255,255,255); fill-rule: nonzero; opacity: 1;"  x="-162.5" y="-0.5" rx="0" ry="0" width="325" height="1" />
</g>
<g transform="matrix(1.1199 0 0 1.1199 186.2381 518.2915)" id="869844"  >
<path style="stroke: rgb(0,0,0); stroke-width: 2; stroke-dasharray: none; stroke-linecap: butt; stroke-dashoffset: 0; stroke-linejoin: miter; stroke-miterlimit: 10; is-custom-font: none; font-file-url: none; fill: none; fill-rule: nonzero; opacity: 1;"  transform=" translate(-479.5, -325.125)" d="M 479.5 341 L 479.5 309.25" stroke-linecap="round" />
</g>
<g transform="matrix(1.1199 0 0 1.1199 122.8927 475.2769)" id="872789"  >
<path style="stroke: rgb(0,0,0); stroke-width: 2; stroke-dasharray: none; stroke-linecap: butt; stroke-dashoffset: 0; stroke-linejoin: miter; stroke-miterlimit: 10; is-custom-font: none; font-file-url: none; fill: none; fill-rule: nonzero; opacity: 1;"  transform=" translate(-317, -286.62)" d="M 317 309 L 317 264.24" stroke-linecap="round" />
</g>
</svg>